<?xml version="1.0" encoding="utf-8"?>
<!-- Generator: Adobe Illustrator 25.0.1, SVG Export Plug-In . SVG Version: 6.00 Build 0)  -->
<svg version="1.1" id="레이어_1" xmlns="http://www.w3.org/2000/svg" xmlns:xlink="http://www.w3.org/1999/xlink" x="0px"
	 y="0px" viewBox="0 0 383.04 383.07" style="enable-background:new 0 0 383.04 383.07;" xml:space="preserve">
<style type="text/css">
	.st0{fill:#FFFFFF;}
</style>
<path class="st0" d="M383.04,192.05c0,59.18,0.01,118.37,0,177.55c0,10.02-3.45,13.46-13.5,13.46c-118.86,0.01-237.72,0-356.58,0
	c-9.33,0-12.95-3.65-12.95-13c0-118.87,0-237.73,0-356.6C0,3.44,3.45,0,13.51,0c118.86,0,237.72,0,356.58,0
	c9.33,0,12.95,3.63,12.95,13C383.04,72.69,383.04,132.37,383.04,192.05z M191.57,21.21c-54.85,0-109.7,0.05-164.54-0.09
	c-4.38-0.01-5.94,0.89-5.93,5.68c0.14,109.7,0.14,219.4,0,329.11c-0.01,4.81,1.29,6.05,6.08,6.05c109.36-0.14,218.73-0.1,328.09-0.1
	c6.57,0,6.57,0,6.57-6.35c0-109.54-0.03-219.07,0.1-328.61c0.01-4.62-1.26-5.81-5.82-5.8C301.27,21.26,246.42,21.21,191.57,21.21z"
	/>
<path class="st0" d="M277.39,116.51c0.27,3.95-2.35,6.75-5.08,9.49c-20.57,20.58-41.08,41.22-61.79,61.66
	c-3.03,2.99-3.32,4.52-0.09,7.7c20.62,20.29,41,40.83,61.46,61.28c2.24,2.24,4.64,4.44,5.29,7.68c0.98,4.9-0.73,8.86-4.92,11.6
	c-3.81,2.5-8.83,2.12-12.38-1.29c-7.66-7.38-15.14-14.95-22.68-22.47c-14.01-13.97-28.11-27.86-41.94-42
	c-2.97-3.03-4.49-2.77-7.34,0.11c-20.69,20.93-41.54,41.7-62.38,62.47c-5.94,5.92-12.25,6.34-16.96,1.3
	c-3.57-3.81-4.04-8.94-1.05-13.22c1.13-1.62,2.57-3.05,3.97-4.45c20.32-20.35,40.58-40.78,61.09-60.94
	c3.39-3.33,2.94-5.01-0.16-8.07c-20.73-20.42-41.24-41.06-61.89-61.55c-3.68-3.65-6.07-7.61-4.42-12.86
	c2.47-7.84,11.86-9.84,18.22-3.78c6.62,6.3,12.98,12.89,19.44,19.35c14.46,14.46,29.07,28.78,43.27,43.49
	c3.76,3.9,5.65,3.36,9.14-0.19c20.17-20.51,40.6-40.76,60.93-61.1c2.74-2.74,5.54-5.23,9.84-5.08
	C272.72,105.84,277.34,110.4,277.39,116.51z"/>
</svg>
